<mxfile host="app.diagrams.net" modified="2022-09-06T10:07:28.234Z" agent="5.0 (Windows NT 10.0; Win64; x64) AppleWebKit/537.36 (KHTML, like Gecko) Chrome/105.0.0.0 Safari/537.36 Edg/105.0.1343.27" etag="iBYzEjUh5Q_c2lPmljQc" version="20.2.7" type="github">
  <diagram id="ST9E6OmzABGtTbr-Tr8b" name="第 1 页">
    <mxGraphModel dx="1422" dy="794" grid="1" gridSize="10" guides="1" tooltips="1" connect="1" arrows="1" fold="1" page="1" pageScale="1" pageWidth="827" pageHeight="1169" math="0" shadow="0">
      <root>
        <mxCell id="0" />
        <mxCell id="1" parent="0" />
        <mxCell id="dGQ5ls6V87ixJKhuK2zu-3" value="" style="edgeStyle=orthogonalEdgeStyle;rounded=0;orthogonalLoop=1;jettySize=auto;html=1;" edge="1" parent="1" source="dGQ5ls6V87ixJKhuK2zu-1" target="dGQ5ls6V87ixJKhuK2zu-2">
          <mxGeometry relative="1" as="geometry" />
        </mxCell>
        <mxCell id="dGQ5ls6V87ixJKhuK2zu-1" value="system" style="whiteSpace=wrap;html=1;" vertex="1" parent="1">
          <mxGeometry x="354" y="30" width="120" height="60" as="geometry" />
        </mxCell>
        <mxCell id="dGQ5ls6V87ixJKhuK2zu-2" value="更新组件&lt;br&gt;" style="whiteSpace=wrap;html=1;" vertex="1" parent="1">
          <mxGeometry x="354" y="170" width="120" height="60" as="geometry" />
        </mxCell>
      </root>
    </mxGraphModel>
  </diagram>
</mxfile>
